<mxfile host="app.diagrams.net" modified="2023-04-12T08:46:32.648Z" agent="Mozilla/5.0 (Windows NT 10.0; Win64; x64) AppleWebKit/537.36 (KHTML, like Gecko) Chrome/111.0.0.0 Safari/537.36" etag="pRRbcajUPgS4mDGwL5AF" version="21.1.6" type="device">
  <diagram name="Page-1" id="JMOSt1KNUKrMnRVbmM4S">
    <mxGraphModel dx="1434" dy="796" grid="1" gridSize="10" guides="1" tooltips="1" connect="1" arrows="1" fold="1" page="1" pageScale="1" pageWidth="850" pageHeight="1100" math="0" shadow="0">
      <root>
        <mxCell id="0" />
        <mxCell id="1" parent="0" />
        <mxCell id="KanO5YXx95c96Qjjqtaj-32" style="edgeStyle=orthogonalEdgeStyle;rounded=0;orthogonalLoop=1;jettySize=auto;html=1;entryX=0.5;entryY=0;entryDx=0;entryDy=0;exitX=0.5;exitY=1;exitDx=0;exitDy=0;" edge="1" parent="1" source="KanO5YXx95c96Qjjqtaj-1" target="KanO5YXx95c96Qjjqtaj-23">
          <mxGeometry relative="1" as="geometry">
            <Array as="points">
              <mxPoint x="380" y="180" />
              <mxPoint x="250" y="180" />
            </Array>
          </mxGeometry>
        </mxCell>
        <mxCell id="KanO5YXx95c96Qjjqtaj-33" style="edgeStyle=orthogonalEdgeStyle;rounded=0;orthogonalLoop=1;jettySize=auto;html=1;entryX=0.5;entryY=0;entryDx=0;entryDy=0;exitX=0.5;exitY=1;exitDx=0;exitDy=0;" edge="1" parent="1" source="KanO5YXx95c96Qjjqtaj-1" target="KanO5YXx95c96Qjjqtaj-2">
          <mxGeometry relative="1" as="geometry">
            <Array as="points">
              <mxPoint x="380" y="180" />
              <mxPoint x="510" y="180" />
            </Array>
          </mxGeometry>
        </mxCell>
        <mxCell id="KanO5YXx95c96Qjjqtaj-1" value="Customer" style="rounded=1;whiteSpace=wrap;html=1;fillColor=#fff2cc;strokeColor=#d6b656;" vertex="1" parent="1">
          <mxGeometry x="320" y="90" width="120" height="60" as="geometry" />
        </mxCell>
        <mxCell id="KanO5YXx95c96Qjjqtaj-8" style="edgeStyle=orthogonalEdgeStyle;rounded=0;orthogonalLoop=1;jettySize=auto;html=1;entryX=0.5;entryY=0;entryDx=0;entryDy=0;" edge="1" parent="1" source="KanO5YXx95c96Qjjqtaj-2" target="KanO5YXx95c96Qjjqtaj-5">
          <mxGeometry relative="1" as="geometry" />
        </mxCell>
        <mxCell id="KanO5YXx95c96Qjjqtaj-39" style="edgeStyle=orthogonalEdgeStyle;rounded=0;orthogonalLoop=1;jettySize=auto;html=1;exitX=0.5;exitY=1;exitDx=0;exitDy=0;" edge="1" parent="1" source="KanO5YXx95c96Qjjqtaj-2">
          <mxGeometry relative="1" as="geometry">
            <mxPoint x="380" y="570" as="targetPoint" />
            <Array as="points">
              <mxPoint x="510" y="300" />
              <mxPoint x="380" y="300" />
            </Array>
          </mxGeometry>
        </mxCell>
        <mxCell id="KanO5YXx95c96Qjjqtaj-2" value="Personal Information&lt;br&gt;- Email Address&lt;br&gt;- Payment Method" style="rounded=1;whiteSpace=wrap;html=1;fillColor=#ffe6cc;strokeColor=#d79b00;" vertex="1" parent="1">
          <mxGeometry x="450" y="210" width="120" height="60" as="geometry" />
        </mxCell>
        <mxCell id="KanO5YXx95c96Qjjqtaj-3" value="Direct Marketing (External Company: Helping You)" style="rounded=1;whiteSpace=wrap;html=1;fillColor=#f8cecc;strokeColor=#b85450;" vertex="1" parent="1">
          <mxGeometry x="550" y="450" width="120" height="60" as="geometry" />
        </mxCell>
        <mxCell id="KanO5YXx95c96Qjjqtaj-4" value="Secure Information Storage" style="rounded=1;whiteSpace=wrap;html=1;fillColor=#dae8fc;strokeColor=#6c8ebf;" vertex="1" parent="1">
          <mxGeometry x="320" y="570" width="120" height="60" as="geometry" />
        </mxCell>
        <mxCell id="KanO5YXx95c96Qjjqtaj-9" style="edgeStyle=orthogonalEdgeStyle;rounded=0;orthogonalLoop=1;jettySize=auto;html=1;" edge="1" parent="1" source="KanO5YXx95c96Qjjqtaj-5" target="KanO5YXx95c96Qjjqtaj-3">
          <mxGeometry relative="1" as="geometry" />
        </mxCell>
        <mxCell id="KanO5YXx95c96Qjjqtaj-5" value="Opt-In" style="rounded=1;whiteSpace=wrap;html=1;fillColor=#ffe6cc;strokeColor=#d79b00;" vertex="1" parent="1">
          <mxGeometry x="550" y="330" width="120" height="60" as="geometry" />
        </mxCell>
        <mxCell id="KanO5YXx95c96Qjjqtaj-21" style="edgeStyle=orthogonalEdgeStyle;rounded=0;orthogonalLoop=1;jettySize=auto;html=1;entryX=0.5;entryY=0;entryDx=0;entryDy=0;" edge="1" parent="1" source="KanO5YXx95c96Qjjqtaj-23" target="KanO5YXx95c96Qjjqtaj-28">
          <mxGeometry relative="1" as="geometry" />
        </mxCell>
        <mxCell id="KanO5YXx95c96Qjjqtaj-38" style="edgeStyle=orthogonalEdgeStyle;rounded=0;orthogonalLoop=1;jettySize=auto;html=1;" edge="1" parent="1" source="KanO5YXx95c96Qjjqtaj-23" target="KanO5YXx95c96Qjjqtaj-4">
          <mxGeometry relative="1" as="geometry">
            <Array as="points">
              <mxPoint x="250" y="300" />
              <mxPoint x="380" y="300" />
            </Array>
          </mxGeometry>
        </mxCell>
        <mxCell id="KanO5YXx95c96Qjjqtaj-23" value="Payment Details" style="rounded=1;whiteSpace=wrap;html=1;fillColor=#ffe6cc;strokeColor=#d79b00;" vertex="1" parent="1">
          <mxGeometry x="190" y="210" width="120" height="60" as="geometry" />
        </mxCell>
        <mxCell id="KanO5YXx95c96Qjjqtaj-25" value="Third-Party Providers Data Storage" style="rounded=1;whiteSpace=wrap;html=1;fillColor=#f8cecc;strokeColor=#b85450;" vertex="1" parent="1">
          <mxGeometry x="90" y="450" width="120" height="60" as="geometry" />
        </mxCell>
        <mxCell id="KanO5YXx95c96Qjjqtaj-27" style="edgeStyle=orthogonalEdgeStyle;rounded=0;orthogonalLoop=1;jettySize=auto;html=1;" edge="1" parent="1" source="KanO5YXx95c96Qjjqtaj-28" target="KanO5YXx95c96Qjjqtaj-25">
          <mxGeometry relative="1" as="geometry" />
        </mxCell>
        <mxCell id="KanO5YXx95c96Qjjqtaj-37" style="edgeStyle=orthogonalEdgeStyle;rounded=0;orthogonalLoop=1;jettySize=auto;html=1;" edge="1" parent="1" source="KanO5YXx95c96Qjjqtaj-28" target="KanO5YXx95c96Qjjqtaj-31">
          <mxGeometry relative="1" as="geometry" />
        </mxCell>
        <mxCell id="KanO5YXx95c96Qjjqtaj-28" value="Third-Party Payment Provider" style="rounded=1;whiteSpace=wrap;html=1;fillColor=#f8cecc;strokeColor=#b85450;" vertex="1" parent="1">
          <mxGeometry x="90" y="330" width="120" height="60" as="geometry" />
        </mxCell>
        <mxCell id="KanO5YXx95c96Qjjqtaj-36" style="edgeStyle=orthogonalEdgeStyle;rounded=0;orthogonalLoop=1;jettySize=auto;html=1;entryX=0;entryY=0.5;entryDx=0;entryDy=0;" edge="1" parent="1" source="KanO5YXx95c96Qjjqtaj-31" target="KanO5YXx95c96Qjjqtaj-4">
          <mxGeometry relative="1" as="geometry" />
        </mxCell>
        <mxCell id="KanO5YXx95c96Qjjqtaj-31" value="Payment Receipt" style="rounded=1;whiteSpace=wrap;html=1;fillColor=#e1d5e7;strokeColor=#9673a6;" vertex="1" parent="1">
          <mxGeometry x="230" y="450" width="120" height="60" as="geometry" />
        </mxCell>
      </root>
    </mxGraphModel>
  </diagram>
</mxfile>
